<?xml version="1.0" encoding="iso-8859-1"?>
<!-- Generator: Adobe Illustrator 19.0.0, SVG Export Plug-In . SVG Version: 6.00 Build 0)  -->
<svg version="1.1" id="Capa_1" xmlns="http://www.w3.org/2000/svg" xmlns:xlink="http://www.w3.org/1999/xlink" x="0px" y="0px"
	 viewBox="0 0 512 512" style="enable-background:new 0 0 512 512;" xml:space="preserve">
<g>
	<g>
		<path d="M462,159.5v-46H306c-20.084,0-38.067,9.16-50,23.518c-11.933-14.358-29.916-23.518-50-23.518h-7v-66H0v392h313v25h199
			v-305H462z M30,77.5h139v82h-10.493L137,195.345L115.493,159.5H30V77.5z M30,409.5v-220h20v200h156
			c13.934,0,25.988,8.186,31.616,20H30z M241,369.749c-10.109-6.484-22.124-10.249-35-10.249H80v-170h18.507L137,253.655
			l38.493-64.155H199v-46h7c19.299,0,35,15.701,35,35V369.749z M313,409.5h-38.616c5.628-11.814,17.682-20,31.616-20h7V409.5z
			 M313,322.5v37h-7c-12.881,0-24.888,3.782-35,10.271V178.5c0-19.299,15.701-35,35-35h126v179h-18.507L375,258.345L336.507,322.5
			H313z M482,434.5H343v-82h10.493L375,316.655l21.507,35.845H482V434.5z M482,322.5h-20v-133h20V322.5z"/>
	</g>
</g>
<g>
</g>
<g>
</g>
<g>
</g>
<g>
</g>
<g>
</g>
<g>
</g>
<g>
</g>
<g>
</g>
<g>
</g>
<g>
</g>
<g>
</g>
<g>
</g>
<g>
</g>
<g>
</g>
<g>
</g>
</svg>
